Coordinates
version=1
nRows=16
nColumns=40
inDegrees=yes

Units are S.I. units (second, meters, Newtons, ...)
Angles are in degrees.

endheader
time	pelvis_tilt	pelvis_list	pelvis_rotation	pelvis_tx	pelvis_ty	pelvis_tz	hip_flexion_r	hip_adduction_r	hip_rotation_r	knee_angle_r	knee_angle_r_beta	ankle_angle_r	subtalar_angle_r	mtp_angle_r	hip_flexion_l	hip_adduction_l	hip_rotation_l	knee_angle_l	knee_angle_l_beta	ankle_angle_l	subtalar_angle_l	mtp_angle_l	lumbar_extension	lumbar_bending	lumbar_rotation	arm_flex_r	arm_add_r	arm_rot_r	elbow_flex_r	pro_sup_r	wrist_flex_r	wrist_dev_r	arm_flex_l	arm_add_l	arm_rot_l	elbow_flex_l	pro_sup_l	wrist_flex_l	wrist_dev_l
     35.57242857	     -0.17798508	     -5.55355750	     -2.07917916	      0.95272065	      0.91524279	      0.58887229	     12.98139505	      6.92808127	    -10.00668133	     29.48275644	     29.48275644	     18.16317535	    -10.15356541	     -0.81465002	     28.84792078	    -15.98220309	     -0.58846418	     61.47380685	     61.47380685	     17.89156431	    -19.63392217	     23.98238423	    -12.82150392	      7.19043061	     -0.05576850	     23.44412164	    -17.27539163	    -19.58465373	     37.28963839	     46.54229443	      0.00000000	      0.00000000	      7.47145716	     -8.21297090	     -5.03323483	     34.43122357	     46.73648725	      0.00000000	      0.00000000
     35.59235714	     -0.00706132	     -5.57819161	     -1.47266554	      0.95090788	      0.91400773	      0.58919733	     12.74857243	      6.98250713	    -10.15428268	     29.91618865	     29.91618865	     18.67893594	    -10.78090980	     -0.73254466	     29.71336356	    -15.77606002	     -0.31875521	     59.53755262	     59.53755262	     17.47411184	    -19.61957037	     23.73514255	    -12.93192542	      6.98696614	     -0.47979623	     25.64352440	    -16.51749286	    -19.21221431	     39.23884075	     46.44824818	      0.00000000	      0.00000000	      5.24171180	     -7.80610077	     -4.25401265	     31.65571868	     46.58835091	      0.00000000	      0.00000000
     35.61228571	      0.07612846	     -5.61387661	     -0.84525134	      0.94913931	      0.91328057	      0.58925675	     12.46696587	      7.01526858	    -10.46832626	     30.07798979	     30.07798979	     19.02840170	    -11.13079811	     -0.60522719	     30.42893095	    -15.54931767	     -0.20624625	     57.15341881	     57.15341881	     16.97072396	    -19.59530170	     23.30516969	    -12.97373314	      6.78438390	     -0.39864658	     27.49607443	    -16.23773779	    -18.71369473	     41.22697189	     46.34600994	      0.00000000	      0.00000000	      3.26102086	     -7.27124257	     -3.41271886	     29.25483552	     46.42685162	      0.00000000	      0.00000000
     35.63221429	      0.11377488	     -5.56329279	     -0.24541279	      0.94754146	      0.91324368	      0.58906602	     12.02476729	      6.96246766	    -10.78317394	     29.87346436	     29.87346436	     19.27480551	    -11.30300421	     -0.51548749	     30.93216968	    -15.10498620	     -0.04846397	     54.42524429	     54.42524429	     16.34899000	    -19.54513509	     23.01476716	    -12.92819292	      6.47550417	     -0.23961246	     29.24586315	    -15.97505940	    -18.30288960	     43.15296586	     46.25542261	      0.00000000	      0.00000000	      1.17791550	     -6.84322924	     -2.83344375	     27.51712887	     46.29815982	      0.00000000	      0.00000000
     35.65214286	     -0.00425073	     -5.55147210	      0.44056566	      0.94603762	      0.91347841	      0.58842560	     11.59202074	      6.89859525	    -11.32867639	     29.38991994	     29.38991994	     19.45066237	    -11.19706187	     -0.44166282	     31.44346290	    -14.55665238	      0.25895848	     51.49221294	     51.49221294	     15.27652452	    -19.48520823	     21.44728116	    -12.72307084	      6.31345221	     -0.14016052	     30.52626879	    -15.86045813	    -17.17463380	     46.63385314	     46.06353856	      0.00000000	      0.00000000	     -0.81921261	     -6.54346756	     -1.62582079	     25.59230918	     46.05112943	      0.00000000	      0.00000000
     35.67207143	     -0.05457363	     -5.40315771	      1.07494865	      0.94473333	      0.91466854	      0.58754351	     10.83240946	      6.74052970	    -11.73844008	     28.45744918	     28.45744918	     19.44556054	    -11.00228367	     -0.33810133	     31.56040290	    -13.76572958	      0.62984882	     48.29173829	     48.29173829	     14.47036015	    -19.36491470	     20.97009083	    -12.58965807	      5.92836766	      0.16170661	     31.99711568	    -15.87817505	    -16.68077823	     48.90579335	     45.96022911	      0.00000000	      0.00000000	     -2.89734166	     -6.32213536	     -1.11062010	     24.64941737	     45.91685031	      0.00000000	      0.00000000
     35.69200000	     -0.36251842	     -5.30781250	      1.75183879	      0.94347931	      0.91575470	      0.58633979	     10.26561036	      6.56269156	    -12.46220487	     27.38051439	     27.38051439	     19.31846813	    -10.46883655	     -0.66630431	     31.76293767	    -12.98081195	      1.09989369	     44.92480657	     44.92480657	     12.83954572	    -19.19432525	     18.21845138	    -12.21720127	      5.65306276	      0.45232009	     32.56534029	    -16.22721895	    -15.22241654	     53.55601249	     45.72183551	      0.00000000	      0.00000000	     -5.13413907	     -6.31754223	      0.13105168	     24.47966798	     45.62660637	      0.00000000	      0.00000000
     35.71192857	     -0.50366585	     -5.13010792	      2.36302853	      0.94237044	      0.91761008	      0.58483007	      9.30200521	      6.39229536	    -12.89989925	     25.90350505	     25.90350505	     19.07032669	    -10.01286252	     -0.56755736	     31.56650391	    -12.03222407	      1.78549057	     41.60266157	     41.60266157	     12.09707554	    -18.87103532	     17.60310075	    -12.06641454	      5.28121513	      0.81426674	     34.10447188	    -16.46243761	    -14.88789071	     55.71792165	     45.63796880	      0.00000000	      0.00000000	     -7.06981198	     -6.26363692	      0.57405276	     24.11479004	     45.50425770	      0.00000000	      0.00000000
     35.73185714	     -0.81754784	     -4.99640145	      2.98320557	      0.94149585	      0.91907325	      0.58320881	      8.51777840	      6.19669972	    -13.68398390	     24.47040900	     24.47040900	     18.74543405	     -9.28722626	     -1.25261965	     31.38522793	    -11.26104611	      2.31407905	     38.23576566	     38.23576566	     10.24112026	    -18.39228847	     14.16398348	    -11.66498637	      4.93014761	      1.26531331	     34.59082980	    -17.06537645	    -13.73410680	     60.23503879	     45.43844382	      0.00000000	      0.00000000	     -9.33708074	     -6.51956779	      1.68991652	     25.17520102	     45.24167523	      0.00000000	      0.00000000
     35.75178571	     -1.08469250	     -4.86095892	      3.53266500	      0.94070269	      0.92069135	      0.58141075	      7.61392848	      6.10893059	    -14.09366886	     22.89343205	     22.89343205	     18.51069341	     -8.85857233	     -1.05991607	     31.10280246	    -10.50807696	      2.94050919	     35.24772160	     35.24772160	      9.84980910	    -17.44932819	     14.00980518	    -11.30539092	      4.55213639	      1.62263522	     36.16604033	    -17.23365059	    -13.63105551	     61.75980868	     45.39092611	      0.00000000	      0.00000000	    -10.95113352	     -6.61388590	      1.89195877	     24.86595538	     45.17831150	      0.00000000	      0.00000000
     35.77171429	     -1.34838525	     -4.82334660	      4.07542921	      0.94004037	      0.92177104	      0.57944539	      6.75110865	      6.03906266	    -14.83186400	     21.42531997	     21.42531997	     18.12607571	     -7.98717791	     -1.84713839	     30.72363377	    -10.01595325	      3.33024876	     32.37565056	     32.37565056	      8.52649037	    -16.29921089	     10.91597769	    -11.07551909	      4.34358949	      2.04291524	     36.92007877	    -17.87363706	    -12.71741783	     65.99160532	     45.23003592	      0.00000000	      0.00000000	    -12.95521364	     -6.94167124	      2.65918526	     26.43616324	     45.01583653	      0.00000000	      0.00000000
     35.79164286	     -1.60567555	     -4.78531477	      4.57133199	      0.93947443	      0.92267613	      0.57739513	      5.92287213	      6.04807366	    -15.23128118	     20.03370059	     20.03370059	     17.95079180	     -7.56071279	     -1.69495481	     30.38416347	     -9.58422453	      3.63596480	     30.02710034	     30.02710034	      8.36209481	    -14.80757162	     10.77438781	    -10.75986608	      4.05966455	      2.25014556	     38.48881223	    -17.90483090	    -12.62034320	     67.46707429	     45.18733459	      0.00000000	      0.00000000	    -14.25975931	     -7.06711890	      2.79317361	     26.23888362	     44.97757868	      0.00000000	      0.00000000
     35.81157143	     -1.88004598	     -4.86022634	      5.05449719	      0.93898737	      0.92286282	      0.57519431	      5.25839466	      6.09685510	    -15.84677652	     18.93044271	     18.93044271	     17.76233801	     -6.91861317	     -2.17950271	     30.11179993	     -9.36511515	      3.72198257	     28.04657441	     28.04657441	      7.71805203	    -13.32699248	      9.07837036	    -10.52718924	      3.94937218	      2.55330701	     39.48484651	    -18.34281575	    -11.96802511	     70.70842973	     45.07881559	      0.00000000	      0.00000000	    -15.71824501	     -7.30484052	      2.98781012	     27.44431960	     44.94718168	      0.00000000	      0.00000000
     35.83150000	     -2.10064346	     -4.89078719	      5.47705590	      0.93856963	      0.92279847	      0.57287954	      4.67893164	      6.11921043	    -16.14321135	     18.11276342	     18.11276342	     17.77857768	     -6.72282029	     -2.14236353	     29.75564294	     -9.11617035	      3.76504463	     26.42107016	     26.42107016	      7.51469228	    -12.11434470	      8.91724979	    -10.31884326	      3.75979646	      2.71267489	     41.01619043	    -18.31687757	    -11.85150355	     72.09543204	     45.04021269	      0.00000000	      0.00000000	    -16.54339181	     -7.40280674	      3.01682071	     27.38895532	     44.93844169	      0.00000000	      0.00000000
     35.85142857	     -2.34013584	     -5.10302886	      5.93100546	      0.93821411	      0.92204098	      0.57040329	      4.25800758	      6.27823877	    -16.59227985	     17.53325555	     17.53325555	     17.84501477	     -6.42403727	     -2.43009752	     29.61823245	     -9.11780595	      3.61340045	     25.34166821	     25.34166821	      6.90797100	    -10.91968540	      7.34643302	    -10.14794943	      3.82301600	      2.88963140	     42.11220637	    -18.53250292	    -11.34119143	     74.74530608	     44.95942622	      0.00000000	      0.00000000	    -17.41059329	     -7.50633394	      2.85250475	     28.29191485	     44.98184017	      0.00000000	      0.00000000
     35.87135714	     -2.63628411	     -5.18054532	      6.33563098	      0.93782659	      0.92100486	      0.56772967	      4.09313676	      6.24671845	    -16.80653959	     17.36580400	     17.36580400	     18.05787539	     -6.57470491	     -2.45974020	     29.56969077	     -8.90227242	      3.64375496	     24.66034208	     24.66034208	      6.63354417	    -10.34698050	      7.35800585	     -9.88247600	      3.65921830	      3.11591077	     43.50105154	    -18.70488532	    -11.38285805	     75.44938197	     44.94548722	      0.00000000	      0.00000000	    -17.65192830	     -7.66192773	      2.81730641	     28.24274707	     44.98679602	      0.00000000	      0.00000000
